# AST/ASF file generated using VICON BodyLanguage
# -----------------------------------------------
:version 1.10
:name VICON
:units
  mass 1.0
  length 0.45
  angle deg
:documentation
   .ast/.asf automatically generated from VICON data using
   VICON BodyBuilder and BodyLanguage model FoxedUp or BRILLIANT.MOD
:root
   order TX TY TZ RX RY RZ
   axis XYZ
   position 0 0 0  
   orientation 0 0 0 
:bonedata
  begin
     id 1 
     name lhipjoint
     direction 0.702568 -0.596508 0.388042 
     length 2.56661 
     axis 0 0 0  XYZ
  end
  begin
     id 2 
     name lfemur
     direction 0.34202 -0.939693 0  
     length 6.58374  
     axis 0 0 20  XYZ
    dof rx ry rz
    limits (-160.0 20.0)
           (-70.0 70.0)
           (-60.0 70.0)
  end
  begin
     id 3 
     name ltibia
     direction 0.34202 -0.939693 0   
     length 6.62538   
     axis 0 0 20   XYZ
    dof rx
    limits (-10.0 170.0)
  end
  begin
     id 4 
     name lfoot
     direction 0.10455 -0.287249 0.952133   
     length 2.26699   
     axis -90 7.62852e-016 20   XYZ
    dof rx rz
    limits (-45.0 90.0)
           (-70.0 20.0)
  end
  begin
     id 5 
     name ltoes
     direction 1.53572e-011 -4.22322e-011 1   
     length 1.12949   
     axis -90 7.62852e-016 20   XYZ
    dof rx
    limits (-90.0 20.0)
  end
  begin
     id 6 
     name rhipjoint
     direction -0.728055 -0.574632 0.373811   
     length 2.66432  
     axis 0 0 0  XYZ 
  end
  begin
     id 7 
     name rfemur
     direction -0.34202 -0.939693 0   
     length 6.66732   
     axis 0 0 -20   XYZ
    dof rx ry rz
    limits (-160.0 20.0)
           (-70.0 70.0)
           (-70.0 60.0)
  end
  begin
     id 8 
     name rtibia
     direction -0.34202 -0.939693 0   
     length 6.59288   
     axis 0 0 -20   XYZ
    dof rx
    limits (-10.0 170.0)
 end
 begin
     id 9 
     name rfoot
     direction -0.119193 -0.327479 0.93731   
     length 2.38061  
     axis -90 -7.62852e-016 -20   XYZ
    dof rx rz
    limits (-45.0 90.0)
           (-20.0 70.0)
  end
  begin
     id 10 
     name rtoes
     direction -1.53547e-011 -4.21827e-011 1   
     length 1.17899   
     axis -90 -7.62852e-016 -20   XYZ
    dof rx
    limits (-90.0 20.0)
  end
  begin
     id 11 
     name lowerback
     direction -0.000416114 0.999912 -0.0132284   
     length 2.12109   
     axis 0 0 0   XYZ
    dof rx ry rz
    limits (-20.0 45.0)
           (-30.0 30.0)
           (-30.0 30.0)
  end
  begin
     id 12 
     name upperback
     direction -0.00136371 0.99809 0.0617608   
     length 2.10067   
     axis 0 0 0   XYZ
    dof rx ry rz
    limits (-20.0 45.0)
           (-30.0 30.0)
           (-30.0 30.0)
  end
  begin
     id 13 
     name thorax
     direction -3.43026e-005 0.997776 0.0666515   
     length 2.10618   
     axis 0 0 0   XYZ
    dof rx ry rz
    limits (-20.0 45.0)
           (-30.0 30.0)
           (-30.0 30.0)
  end
  begin
     id 14 
     name lowerneck
     direction 0.0398646 0.998418 0.0396592   
     length 1.83817   
     axis 0 0 0   XYZ
    dof rx ry rz
    limits (-20.0 45.0)
           (-30.0 30.0)
           (-30.0 30.0)
  end
  begin
     id 15 
     name upperneck
     direction -0.0367268 0.961527 -0.272244   
     length 1.81975   
     axis 0 0 0   XYZ
    dof rx ry rz
    limits (-20.0 45.0)
           (-30.0 30.0)
           (-30.0 30.0)
  end
  begin
     id 16
     name head
     direction -0.0182665 0.99536 -0.0944669  
     length 1.86026  
     axis 0 0 0   XYZ
    dof rx ry rz
    limits (-20.0 45.0)
           (-30.0 30.0)
           (-30.0 30.0)
  end
  begin
     id 17 
     name lclavicle
     direction 0.924239 0.361045 0.124212  
     length 3.26878  
     axis 0 0 0   XYZ
    dof ry rz
    limits (-20.0 10.0)
           (0.0 20.0)
  end
  begin
     id 18 
     name lhumerus
     direction 1 -4.48968e-011 -2.56583e-027   
     length 4.58538   
     axis 180 -30 -90   XYZ
    dof rx ry rz
    limits (-60.0 90.0)
           (-90.0 90.0)
           (-90.0 90.0)
  end
  begin
     id 19
     name lradius
     direction 1 -4.4898e-011 -5.50375e-027   
     length 2.68935   
     axis 180 -30 -90   XYZ
    dof rx
    limits (-10.0 170.0)
  end
  begin
     id 20
     name lwrist
     direction 1 -4.48939e-011 -1.48955e-026   
     length 1.34468   
     axis 9.0955e-015 90 90   XYZ
    dof ry
    limits (-180.0 0.0)
 end
  begin
     id 21 
     name lhand
     direction 1 -4.48936e-011 -2.97907e-026   
     length 0.585058   
     axis 1.90115e-014 90 90   XYZ
    dof rx rz
    limits (-90.0 90.0)
           (-45.0 45.0)
  end
  begin
     id 22 
     name lfingers
     direction 1 -4.49082e-011 -5.96235e-026   
     length 0.471689   
     axis 3.80223e-014 90 90   XYZ
    dof rx
    limits (0.0 90.0)
  end
  begin
     id 23
     name lthumb
     direction 0.707107 -6.3489e-011 0.707107   
     length 0.677253   
     axis -90 45 -3.84942e-014   XYZ
    dof rx rz
    limits (-45.0 45.0)
           (-45.0 45.0)
  end
  begin
     id 24 
     name rclavicle
     direction -0.923098 0.371783 0.0983239   
     length 3.19656  
     axis 0 0 0   XYZ 
    dof ry rz
    limits (-10.0 20.0)
           (-20.0 0.0)
  end
  begin
     id 25 
     name rhumerus
     direction -1 -4.48976e-011 -2.5492e-027  
     length 4.4745   
     axis 180 30 90   XYZ
    dof rx ry rz
    limits (-90.0 60.0)
           (-90.0 90.0)
           (-90.0 90.0)
  end
  begin
     id 26 
     name rradius
     direction -1 -4.48941e-011 -4.36555e-027   
     length 2.93896   
     axis 180 30 90   XYZ
    dof rx
    limits (-10.0 170.0)
  end
  begin
     id 27 
     name rwrist
     direction -1 -4.49044e-011 -1.49032e-026   
     length 1.46948   
     axis 9.0955e-015 -90 -90   XYZ
    dof ry
    limits (-180.0 0.0)
  end
  begin
     id 28
     name rhand
     direction -1 -4.48826e-011 -2.97749e-026   
     length 0.405092   
     axis 1.90115e-014 -90 -90   XYZ
    dof rx rz
    limits (-90.0 90.0)
           (-45.0 45.0)
  end
  begin
     id 29
     name rfingers
     direction -1 -4.49209e-011 -5.96602e-026   
     length 0.326596   
     axis 3.80223e-014 -90 -90   XYZ
    dof rx
    limits (0.0 90.0)
  end
  begin
     id 30
     name rthumb
     direction -0.707107 -6.34776e-011 0.707107   
     length 0.468928   
     axis -90 -45 3.84942e-014   XYZ
    dof rx rz
    limits (-45.0 45.0)
           (-45.0 45.0)
  end
:hierarchy
  begin
    root lhipjoint rhipjoint lowerback
    lhipjoint lfemur
    lfemur ltibia
    ltibia lfoot
    lfoot ltoes
    rhipjoint rfemur
    rfemur rtibia
    rtibia rfoot
    rfoot rtoes
    lowerback upperback
    upperback thorax
    thorax lowerneck lclavicle rclavicle
    lowerneck upperneck
    upperneck head
    lclavicle lhumerus
    lhumerus lradius
    lradius lwrist
    lwrist lhand lthumb
    lhand lfingers
    rclavicle rhumerus
    rhumerus rradius
    rradius rwrist
    rwrist rhand rthumb
    rhand rfingers
  end

#!OML:ASF H:\Punching\Project 1\Capture day 1\Session 1\female.ASF
:FULLY-SPECIFIED
:DEGREES
784
root -0.118921 15.7582 3.64322 -27.1403 20.1397 -12.0771
lowerback 15.7876 -3.69922 -1.78623
upperback 4.7632 -4.69587 9.16502
thorax -2.75933 -2.40478 11.8372
lowerneck -6.6342 -0.996269 8.29566
upperneck 35.0036 -0.225769 -8.41543
head 12.6276 0.0346661 -4.77966
rclavicle -5.00937e-014 5.40694e-014
rhumerus -11.2574 -0.996028 -44.6515
rradius 125.766
rwrist -20.9389
rhand -33.1074 4.26439
rfingers 7.12502
rthumb -6.31791 -25.6214
lclavicle -5.00937e-014 5.40694e-014
lhumerus 10.9769 -25.5179 69.4259
lradius 129.297
lwrist -1.70726
lhand -27.764 2.71237
lfingers 7.12502
lthumb -1.15802 32.689
rfemur -117.294 -21.4627 19.6715
rtibia 114.761
rfoot 8.25163 3.09746
rtoes -17.9983
lfemur 9.20592 -5.58857 -17.3559
ltibia 32.8409
lfoot -5.51652 -2.53957
ltoes 13.9315
785
root -0.102982 15.7983 3.71666 -27.7075 20.5503 -13.076
lowerback 15.4603 -3.80888 -1.3865
upperback 4.76458 -4.77107 9.55826
thorax -2.56192 -2.45066 12.0319
lowerneck -6.51853 -1.23418 8.20843
upperneck 35.2658 -0.58543 -8.2622
head 12.6773 -0.107527 -4.75364
rclavicle 7.15625e-015 -5.40694e-014
rhumerus -11.6954 -1.53135 -43.8443
rradius 126.037
rwrist -20.8707
rhand -33.0262 4.11842
rfingers 7.12502
rthumb -6.23948 -25.7697
lclavicle 7.15625e-015 -5.40694e-014
lhumerus 11.0323 -26.2668 70.5863
lradius 129.011
lwrist -1.84619
lhand -27.6173 2.61332
lfingers 7.12502
lthumb -1.01629 32.5906
rfemur -119.916 -21.6992 19.6402
rtibia 111.583
rfoot 9.03085 2.81131
rtoes -18.2993
lfemur 9.48993 -5.60818 -16.3305
ltibia 32.9383
lfoot -5.19417 -3.06748
ltoes 13.9371
786
root -0.087343 15.836 3.78474 -28.2001 20.889 -14.05
lowerback 15.1169 -3.87347 -0.956083
upperback 4.73201 -4.7845 9.92708
thorax -2.41056 -2.46086 12.1713
lowerneck -6.44233 -1.48954 8.13276
upperneck 35.5424 -0.99498 -8.0546
head 12.7391 -0.263461 -4.71484
rclavicle 2.14687e-014 -4.13472e-014
rhumerus -12.2246 -2.1129 -43.0606
rradius 126.289
rwrist -20.6849
rhand -32.9192 4.04034
rfingers 7.12502
rthumb -6.13618 -25.8508
lclavicle 2.14687e-014 -4.13472e-014
lhumerus 10.9755 -27.0475 71.7695
lradius 128.763
lwrist -2.06213
lhand -27.4062 2.53783
lfingers 7.12502
lthumb -0.812372 32.516
rfemur -122.192 -21.9383 19.4127
rtibia 107.991
rfoot 9.7702 2.53008
rtoes -18.6759
lfemur 9.67063 -5.65849 -15.2968
ltibia 33.052
lfoot -4.88826 -3.66375
ltoes 13.8344
787
root -0.0724322 15.869 3.84749 -28.6554 21.1885 -14.989
lowerback 14.7904 -3.90294 -0.514256
upperback 4.68935 -4.75242 10.2623
thorax -2.29287 -2.44496 12.261
lowerneck -6.39374 -1.75793 8.07418
upperneck 35.8036 -1.44924 -7.79349
head 12.7989 -0.430585 -4.66215
rclavicle -4.45278e-014 -2.38542e-014
rhumerus -12.8149 -2.75267 -42.3041
rradius 126.526
rwrist -20.4127
rhand -32.7851 3.99123
rfingers 7.12502
rthumb -6.00671 -25.9036
lclavicle -4.45278e-014 -2.38542e-014
lhumerus 10.8476 -27.8456 72.9505
lradius 128.552
lwrist -2.31854
lhand -27.1243 2.5484
lfingers 7.12502
lthumb -0.540176 32.5275
rfemur -124.059 -22.2399 18.9514
rtibia 103.994
rfoot 10.4755 2.15989
rtoes -19.325
lfemur 9.77587 -5.74246 -14.2772
ltibia 33.19
lfoot -4.58209 -4.32845
ltoes 13.6731
788
root -0.0581474 15.8974 3.90369 -29.094 21.4782 -15.8589
lowerback 14.5157 -3.90368 -0.0985749
upperback 4.65573 -4.6881 10.5526
thorax -2.20193 -2.41096 12.3152
lowerneck -6.39092 -2.02691 8.03553
upperneck 36.0403 -1.92707 -7.49519
head 12.8589 -0.601419 -4.6004
rclavicle 3.71727e-014 -1.90833e-014
rhumerus -13.4297 -3.44804 -41.5825
rradius 126.736
rwrist -20.0956
rhand -32.6529 4.04372
rfingers 7.12502
rthumb -5.87907 -25.8547
lclavicle 3.71727e-014 -1.90833e-014
lhumerus 10.6513 -28.6433 74.1013
lradius 128.381
lwrist -2.56855
lhand -26.8635 2.51272
lfingers 7.12502
lthumb -0.288214 32.4923
rfemur -125.498 -22.6355 18.2457
rtibia 99.6224
rfoot 11.0596 1.56201
rtoes -20.2855
lfemur 9.83159 -5.85343 -13.327
ltibia 33.3538
lfoot -4.25782 -5.03265
ltoes 13.5129
789
root -0.0449649 15.921 3.9528 -29.5459 21.7739 -16.6412
lowerback 14.338 -3.88616 0.261418
upperback 4.6467 -4.60699 10.7961
thorax -2.1396 -2.36762 12.3551
lowerneck -6.41672 -2.28439 8.00927
upperneck 36.2323 -2.40394 -7.17223
head 12.9092 -0.767986 -4.5292
rclavicle -8.34896e-014 8.26944e-014
rhumerus -14.0187 -4.1804 -40.9027
rradius 126.918
rwrist -19.7718
rhand -32.5212 4.13805
rfingers 7.12502
rthumb -5.75192 -25.7639
lclavicle -8.34896e-014 8.26944e-014
lhumerus 10.3898 -29.4085 75.2072
lradius 128.269
lwrist -2.76529
lhand -26.6532 2.41678
lfingers 7.12502
lthumb -0.0851071 32.3965
rfemur -126.387 -23.1551 17.2174
rtibia 94.8284
rfoot 11.5441 0.562653
rtoes -21.1237
lfemur 9.87313 -5.98208 -12.479
ltibia 33.5456
lfoot -3.90598 -5.74444
ltoes 13.3706
790
root -0.0326667 15.94 3.99354 -30.0022 22.0928 -17.2982
lowerback 14.2686 -3.85421 0.532317
upperback 4.6706 -4.51797 10.9829
thorax -2.09951 -2.32046 12.3909
lowerneck -6.48434 -2.52058 7.99997
upperneck 36.3845 -2.86186 -6.84047
head 12.9559 -0.923734 -4.4547
rclavicle -6.50026e-014 1.59028e-014
rhumerus -14.5449 -4.93757 -40.2757
rradius 127.068
rwrist -19.4837
rhand -32.3966 4.23363
rfingers 7.12502
rthumb -5.63162 -25.6715
lclavicle -6.50026e-014 1.59028e-014
lhumerus 10.0755 -30.1291 76.2432
lradius 128.22
lwrist -2.85554
lhand -26.5097 2.23909
lfingers 7.12502
lthumb 0.0534438 32.2188
rfemur -126.693 -23.8023 15.8149
rtibia 89.6024
rfoot 11.9383 -0.897751
rtoes -21.8588
lfemur 9.90931 -6.11859 -11.7914
ltibia 33.7636
lfoot -3.52786 -6.41182
ltoes 13.2913
791
root -0.0212282 15.9535 4.02622 -30.446 22.454 -17.7931
lowerback 14.3075 -3.81376 0.675442
upperback 4.72463 -4.43377 11.1056
thorax -2.07969 -2.27669 12.4387
lowerneck -6.55195 -2.73506 8.00011
upperneck 36.484 -3.29156 -6.50919
head 12.9846 -1.06707 -4.37637
rclavicle 6.57977e-014 -4.45278e-014
rhumerus -14.9692 -5.69208 -39.707
rradius 127.187
rwrist -19.2667
rhand -32.2796 4.25846
rfingers 7.12502
rthumb -5.51869 -25.6497
lclavicle 6.57977e-014 -4.45278e-014
lhumerus 9.70463 -30.7852 77.2069
lradius 128.257
lwrist -2.82281
lhand -26.3829 2.06923
lfingers 7.12502
lthumb 0.175928 32.0489
rfemur -126.341 -24.5875 13.928
rtibia 83.9027
rfoot 12.2792 -2.85575
rtoes -22.2544
lfemur 9.95304 -6.25513 -11.319
ltibia 33.9961
lfoot -3.14521 -6.99627
ltoes 13.2194
